#!OML:ASF H:\IndianDance\Patient Classification 1\Patient 1\Session 1\dancer.ASF
:FULLY-SPECIFIED
:DEGREES
3607
root -4.2365 14.5857 -5.69446 -178.101 12.4356 172.393
lowerback 8.62254 2.99285 4.31734
upperback -6.28261 4.64488 -2.05287
thorax -11.1279 1.88165 -5.49411
lowerneck -12.8315 -9.66541 -10.3993
upperneck 16.7314 -11.9367 5.51953
head 8.27301 -5.73011 2.13672
rclavicle 1.8487e-014 1.19271e-014
rhumerus 14.9895 8.99754 -34.443
rradius 49.4509
rwrist -16.6686
rhand -46.6163 23.5804
rfingers 7.12502
rthumb -19.3384 -5.47802
lclavicle 1.8487e-014 1.19271e-014
lhumerus -10.6346 -57.8038 22.1012
lradius 114.531
lwrist -8.17052
lhand -49.4866 28.1902
lfingers 7.12502
lthumb -22.0963 56.9477
rfemur -52.4788 -12.5138 5.84503
rtibia 47.1065
rfoot -20.8086 -16.3397
rtoes 1.76201
lfemur -22.1604 22.7254 -30.9664
ltibia 50.4929
lfoot -24.0292 9.82867
ltoes -3.09046
3608
root -4.20308 14.623 -5.73529 -177.998 12.5492 172.511
lowerback 8.48112 2.85469 4.26423
upperback -6.35206 4.46481 -1.92374
thorax -11.1567 1.80547 -5.28766
lowerneck -12.6682 -9.74719 -10.308
upperneck 16.4345 -12.0801 5.50768
head 8.14945 -5.80229 2.11036
rclavicle -2.41523e-014 -4.85035e-014
rhumerus 15.8764 6.62533 -35.0486
rradius 49.874
rwrist -21.258
rhand -45.8949 20.6184
rfingers 7.12502
rthumb -18.6446 -8.50804
lclavicle -2.41523e-014 -4.85035e-014
lhumerus -9.94289 -58.171 21.6998
lradius 114.645
lwrist -8.88806
lhand -50.401 27.6863
lfingers 7.12502
lthumb -22.9739 56.3373
rfemur -52.2216 -12.1861 5.98203
rtibia 45.0492
rfoot -20.741 -16.914
rtoes 2.2628
lfemur -21.7468 22.6233 -30.6815
ltibia 49.9184
lfoot -23.6973 9.93736
ltoes -3.37791
3609
root -4.16505 14.659 -5.77852 -177.903 12.6362 172.582
lowerback 8.29618 2.72651 4.148
upperback -6.4223 4.28759 -1.81525
thorax -11.1607 1.73672 -5.06585
lowerneck -12.5401 -9.82825 -10.2115
upperneck 16.2138 -12.2208 5.50107
head 8.0576 -5.87016 2.08336
rclavicle 8.15017e-015 1.59028e-015
rhumerus 16.7135 4.36897 -35.6556
rradius 50.38
rwrist -25.806
rhand -44.9631 17.3215
rfingers 7.12502
rthumb -17.7482 -11.8885
lclavicle 8.15017e-015 1.59028e-015
lhumerus -9.22296 -58.523 21.3059
lradius 114.701
lwrist -9.56744
lhand -51.2686 27.2966
lfingers 7.12502
lthumb -23.8062 55.8417
rfemur -51.8482 -11.7986 6.02611
rtibia 42.9521
rfoot -20.6926 -17.3415
rtoes 2.49652
lfemur -21.323 22.5127 -30.4235
ltibia 49.3517
lfoot -23.3526 10.0258
ltoes -3.69303
3610
root -4.12248 14.6933 -5.82411 -177.828 12.7019 172.599
lowerback 8.07977 2.6045 3.95479
upperback -6.49232 4.10665 -1.72819
thorax -11.1473 1.6727 -4.82192
lowerneck -12.4441 -9.90432 -10.097
upperneck 16.0702 -12.3546 5.49148
head 7.99523 -5.93168 2.05162
rclavicle -1.95803e-014 -7.95139e-016
rhumerus 17.51 2.21645 -36.274
rradius 50.9143
rwrist -30.2366
rhand -43.7911 13.8868
rfingers 7.12502
rthumb -16.6201 -15.4216
lclavicle -1.95803e-014 -7.95139e-016
lhumerus -8.5089 -58.8622 20.926
lradius 114.734
lwrist -10.2074
lhand -52.0728 27.1143
lfingers 7.12502
lthumb -24.5773 55.5567
rfemur -51.3585 -11.3437 5.96365
rtibia 40.8474
rfoot -20.6645 -17.6635
rtoes 2.49378
lfemur -20.8761 22.4021 -30.1965
ltibia 48.7938
lfoot -22.9935 10.1052
ltoes -4.08166
3611
root -4.0757 14.7259 -5.87179 -177.776 12.7468 172.567
lowerback 7.83935 2.49173 3.68297
upperback -6.56017 3.92733 -1.65343
thorax -11.1184 1.61621 -4.54656
lowerneck -12.3866 -9.9828 -9.99262
upperneck 16.007 -12.4887 5.49315
head 7.96775 -5.99045 2.0224
rclavicle -5.78463e-014 -1.27222e-014
rhumerus 18.2643 0.180162 -36.8513
rradius 51.4417
rwrist -34.5201
rhand -42.3707 10.4154
rfingers 7.12502
rthumb -15.2522 -19.0023
lclavicle -5.78463e-014 -1.27222e-014
lhumerus -7.80081 -59.1859 20.5847
lradius 114.742
lwrist -10.7751
lhand -52.7876 27.1293
lfingers 7.12502
lthumb -25.2623 55.4768
rfemur -50.7612 -10.8219 5.80378
rtibia 38.7647
rfoot -20.6511 -17.9506
rtoes 2.32345
lfemur -20.4059 22.2886 -29.994
ltibia 48.2475
lfoot -22.6274 10.1492
ltoes -4.4334
